<svg width="249" height="192" viewBox="0 0 249 192" fill="none" xmlns="http://www.w3.org/2000/svg">
<g clip-path="url(#clip0_498_10881)">
<path d="M166.789 53.9067C172.128 39.5515 184.743 27.1476 199.987 25.6721C190.822 39.5793 186.871 56.2802 188.834 72.8198C189.614 79.1957 191.146 86.206 187.709 91.6326C185.57 95.0092 181.801 97.0879 177.916 98.026C174.031 98.964 169.983 98.8914 165.987 98.8133L165.092 99.2551C162.282 84.1992 161.449 68.262 166.789 53.9067Z" fill="#F0F0F0"/>
<path d="M200.061 25.9849C189.669 33.2452 181.828 43.5955 177.653 55.5656C176.774 58.1355 176.106 60.8189 176.068 63.5478C176.051 66.2081 176.746 68.8244 178.082 71.125C179.285 73.295 180.766 75.3755 181.42 77.8001C182.11 80.3557 181.548 82.9411 180.139 85.1491C178.416 87.8507 175.825 89.7719 173.225 91.5627C170.339 93.5509 167.31 95.5704 165.544 98.6938C165.33 99.0723 164.755 98.7181 164.969 98.3403C168.041 92.906 174.489 90.9321 178.434 86.3161C180.275 84.1622 181.477 81.4406 180.908 78.5725C180.411 76.0645 178.885 73.9178 177.648 71.7311C176.35 69.435 175.501 67.0522 175.402 64.3956C175.301 61.6782 175.865 58.963 176.675 56.3819C178.554 50.5427 181.339 45.0351 184.928 40.0611C188.994 34.3615 194.004 29.3994 199.743 25.3894C200.098 25.1413 200.414 25.7385 200.061 25.9849V25.9849Z" fill="white"/>
<path d="M178.77 51.6321C176.857 50.659 175.352 49.0375 174.524 47.0572C173.696 45.0768 173.599 42.8666 174.25 40.8213C174.383 40.4079 175.032 40.5954 174.899 41.0093C174.289 42.9129 174.379 44.9717 175.154 46.8142C175.929 48.6567 177.337 50.1615 179.124 51.0571C179.512 51.2522 179.156 51.8261 178.77 51.6321Z" fill="white"/>
<path d="M177.328 70.105C181.512 68.7835 185.044 65.9335 187.22 62.1233C187.435 61.7456 188.01 62.0996 187.795 62.4769C185.523 66.4376 181.841 69.396 177.484 70.7616C177.069 70.8915 176.914 70.2341 177.328 70.105V70.105Z" fill="white"/>
<path d="M189.456 35.128C190.118 35.6588 190.901 36.0169 191.736 36.1701C192.57 36.3234 193.429 36.267 194.237 36.006C194.65 35.8709 194.804 36.5284 194.393 36.6626C193.5 36.9468 192.551 37.008 191.629 36.8407C190.706 36.6734 189.839 36.2828 189.102 35.7031C189.028 35.6542 188.976 35.5791 188.955 35.4928C188.935 35.4066 188.948 35.3158 188.992 35.2388C189.039 35.1629 189.114 35.1087 189.201 35.0879C189.288 35.0672 189.38 35.0816 189.456 35.128V35.128Z" fill="white"/>
<path d="M236.732 62.2638C236.476 62.3555 236.221 62.4472 235.963 62.5443C232.53 63.7948 229.205 65.3222 226.019 67.1112C225.77 67.2457 225.521 67.3856 225.277 67.5269C217.648 71.919 210.901 77.6893 205.378 84.5444C203.183 87.2742 201.199 90.1671 199.443 93.198C197.018 97.3839 194.722 102.115 191.161 105.166C190.793 105.488 190.405 105.788 190 106.062L165.7 100.312C165.652 100.271 165.602 100.236 165.553 100.195L164.572 100.01C164.652 99.8474 164.738 99.6804 164.817 99.5178C164.863 99.4232 164.914 99.33 164.96 99.2354C164.992 99.1728 165.025 99.1102 165.05 99.0519C165.061 99.031 165.072 99.0102 165.081 98.9948C165.107 98.9365 165.137 98.885 165.161 98.8322C165.64 97.8975 166.126 96.9646 166.619 96.0334C166.621 96.0279 166.621 96.0279 166.627 96.0236C170.406 88.9381 174.809 82.1057 180.11 76.1589C180.269 75.9801 180.43 75.7956 180.6 75.6193C183.004 72.9521 185.623 70.4857 188.428 68.245C189.969 67.023 191.57 65.8797 193.226 64.8196C197.51 62.0886 202.197 60.0485 207.115 58.774C216.919 56.2347 227.426 56.8593 236.075 61.8742C236.296 62.0026 236.512 62.1298 236.732 62.2638Z" fill="#F0F0F0"/>
<path d="M236.604 62.5593C223.936 62.0993 211.444 65.6429 200.903 72.6866C198.654 74.2094 196.505 75.9499 194.832 78.1056C193.216 80.2194 192.197 82.7272 191.878 85.3684C191.532 87.8251 191.462 90.3781 190.525 92.7079C189.537 95.1636 187.531 96.8895 185.077 97.8044C182.075 98.9239 178.849 98.8977 175.695 98.7625C172.194 98.6124 168.559 98.401 165.269 99.8317C164.87 100.005 164.624 99.3763 165.023 99.2032C170.747 96.7141 177.084 99.0202 183.013 97.7095C185.779 97.0979 188.378 95.6489 189.651 93.0163C190.763 90.7142 190.838 88.0815 191.167 85.591C191.512 82.9759 192.27 80.5626 193.79 78.3819C195.345 76.1513 197.431 74.3231 199.631 72.7495C204.647 69.2184 210.186 66.4979 216.047 64.6876C222.725 62.5844 229.713 61.639 236.709 61.8923C237.142 61.9082 237.035 62.5751 236.604 62.5593L236.604 62.5593Z" fill="white"/>
<path d="M204.164 70.2188C203.222 68.2899 202.997 66.0891 203.528 64.0093C204.059 61.9296 205.312 60.1064 207.063 58.8653C207.419 58.6154 207.824 59.1557 207.468 59.4059C205.835 60.5586 204.668 62.2571 204.177 64.1947C203.687 66.1324 203.905 68.1816 204.792 69.9725C204.985 70.3619 204.355 70.606 204.164 70.2188V70.2188Z" fill="white"/>
<path d="M191.89 84.0996C196.026 85.5636 200.562 85.4147 204.594 83.6827C204.993 83.5107 205.239 84.1394 204.84 84.3112C200.642 86.1057 195.921 86.2511 191.619 84.7181C191.21 84.5718 191.482 83.954 191.89 84.0996Z" fill="white"/>
<path d="M222.632 63.4747C222.841 64.2969 223.251 65.0544 223.825 65.6792C224.399 66.3039 225.119 66.7763 225.921 67.0539C226.332 67.195 226.059 67.8127 225.65 67.6725C224.766 67.3616 223.971 66.8389 223.336 66.1501C222.7 65.4613 222.243 64.6273 222.004 63.721C221.974 63.6374 221.977 63.5457 222.013 63.4645C222.048 63.3832 222.113 63.3185 222.195 63.2836C222.278 63.2514 222.371 63.2534 222.453 63.2892C222.535 63.325 222.599 63.3916 222.632 63.4747V63.4747Z" fill="white"/>
<path d="M25.9942 185.49C12.0831 179.082 0.667186 165.567 0.347168 150.254C13.5226 160.443 29.8774 165.644 46.518 164.936C52.9346 164.639 60.0406 163.641 65.1921 167.478C68.3976 169.866 70.1857 173.781 70.8278 177.726C71.4697 181.671 71.0916 185.702 70.712 189.681L71.0849 190.606C55.8597 192.272 39.9052 191.898 25.9942 185.49Z" fill="#F0F0F0"/>
<path d="M0.664614 150.204C7.1194 161.115 16.848 169.715 28.4686 174.782C30.9648 175.852 33.5902 176.721 36.3084 176.965C38.9598 177.183 41.6212 176.687 44.016 175.529C46.2707 174.494 48.4571 173.174 50.9242 172.704C53.5246 172.21 56.0601 172.965 58.1555 174.537C60.7192 176.459 62.4392 179.188 64.0286 181.915C65.7932 184.943 67.5782 188.116 70.5593 190.113C70.9205 190.355 70.524 190.901 70.1633 190.66C64.9766 187.186 63.4953 180.607 59.1903 176.325C57.1816 174.327 54.5585 172.923 51.6557 173.273C49.1172 173.58 46.8615 174.94 44.5876 176.008C42.2 177.129 39.76 177.795 37.1035 177.693C34.3862 177.589 31.7214 176.821 29.2088 175.819C23.5281 173.505 18.2466 170.311 13.5578 166.356C8.18154 161.872 3.61195 156.501 0.0467474 150.476C-0.173776 150.103 0.445513 149.834 0.66458 150.204H0.664614Z" fill="white"/>
<path d="M24.6308 173.371C23.516 175.205 21.7855 176.583 19.7483 177.259C17.711 177.935 15.4998 177.865 13.5095 177.062C13.1073 176.898 13.3433 176.265 13.746 176.429C15.598 177.181 17.6578 177.246 19.5535 176.613C21.4493 175.979 23.0562 174.689 24.0841 172.975C24.308 172.602 24.8534 173.001 24.6308 173.371Z" fill="white"/>
<path d="M42.942 176.204C41.9402 171.932 39.3651 168.195 35.7301 165.737C35.3698 165.494 35.7662 164.948 36.1261 165.191C39.904 167.755 42.5759 171.65 43.6086 176.098C43.7067 176.522 43.0396 176.626 42.942 176.204Z" fill="white"/>
<path d="M8.98083 161.469C9.56007 160.849 9.97628 160.095 10.1921 159.275C10.4079 158.454 10.4166 157.593 10.2173 156.769C10.1138 156.346 10.7811 156.242 10.8839 156.662C11.0998 157.574 11.0891 158.525 10.8526 159.432C10.6162 160.339 10.1612 161.175 9.52752 161.865C9.47324 161.935 9.3943 161.982 9.30676 161.996C9.21921 162.01 9.12962 161.99 9.05619 161.941C8.98407 161.888 8.93569 161.809 8.92158 161.72C8.90747 161.632 8.92876 161.542 8.98083 161.469Z" fill="white"/>
<path d="M39.6092 116.377C39.6813 116.639 39.7534 116.901 39.8309 117.165C40.8186 120.683 42.0904 124.114 43.6338 127.426C43.7491 127.684 43.8698 127.944 43.9922 128.198C47.7957 136.136 53.04 143.3 59.4585 149.324C62.0148 151.719 64.7496 153.916 67.6392 155.896C71.63 158.63 76.1746 161.277 78.9475 165.058C79.2412 165.45 79.5104 165.859 79.7536 166.283L72.185 190.079C72.1406 190.125 72.1016 190.172 72.0572 190.218L71.7985 191.182C71.6423 191.09 71.4823 190.992 71.3261 190.9C71.2353 190.847 71.1462 190.789 71.0554 190.736C70.9954 190.699 70.9354 190.662 70.8792 190.632C70.8592 190.62 70.8392 190.608 70.8246 190.597C70.7684 190.567 70.7193 190.534 70.6685 190.505C69.7726 189.958 68.8791 189.402 67.9878 188.84C67.9824 188.838 67.9824 188.838 67.9786 188.831C61.1987 184.528 54.7184 179.622 49.1888 173.887C49.0225 173.715 48.8507 173.541 48.6878 173.357C46.2097 170.759 43.9481 167.962 41.9256 164.995C40.8234 163.367 39.8043 161.684 38.8723 159.952C36.4726 155.474 34.7923 150.647 33.8928 145.647C32.1012 135.679 33.5174 125.249 39.1711 117.003C39.3159 116.792 39.459 116.586 39.6092 116.377Z" fill="#F0F0F0"/>
<path d="M39.8942 116.527C38.4788 129.125 41.0689 141.849 47.2966 152.891C48.6452 155.248 50.2185 157.523 52.2416 159.354C54.2274 161.125 56.651 162.331 59.2606 162.848C61.6842 163.379 64.2247 163.641 66.477 164.752C68.851 165.923 70.4206 168.052 71.1476 170.569C72.0371 173.647 71.7674 176.862 71.3945 179.996C70.9804 183.476 70.4951 187.084 71.6733 190.473C71.816 190.884 71.1705 191.082 71.0279 190.672C68.9782 184.775 71.7563 178.63 70.897 172.62C70.4961 169.815 69.2475 167.114 66.7185 165.647C64.507 164.363 61.8874 164.09 59.4289 163.574C56.8474 163.032 54.4981 162.095 52.4385 160.414C50.3317 158.695 48.6662 156.477 47.2633 154.164C44.121 148.896 41.8265 143.167 40.464 137.186C38.8711 130.369 38.4561 123.329 39.237 116.372C39.2856 115.942 39.9424 116.099 39.8942 116.527V116.527Z" fill="white"/>
<path d="M45.0821 149.453C43.0876 150.247 40.876 150.305 38.8424 149.619C36.8087 148.932 35.0853 147.545 33.98 145.705C33.7576 145.332 34.3269 144.969 34.5496 145.342C35.5757 147.057 37.1811 148.349 39.0762 148.985C40.9713 149.621 43.0311 149.558 44.884 148.808C45.2868 148.646 45.4826 149.292 45.0821 149.453Z" fill="white"/>
<path d="M57.9964 162.741C59.7685 158.727 59.9626 154.192 58.54 150.041C58.3987 149.63 59.0442 149.432 59.1853 149.843C60.6577 154.165 60.4461 158.884 58.5927 163.057C58.4158 163.454 57.8204 163.136 57.9964 162.741Z" fill="white"/>
<path d="M39.7518 130.528C40.5875 130.382 41.3738 130.031 42.0401 129.506C42.7064 128.98 43.2318 128.298 43.5692 127.52C43.741 127.12 44.3362 127.439 44.1656 127.836C43.7888 128.694 43.2076 129.447 42.4728 130.029C41.7379 130.611 40.8717 131.004 39.9499 131.174C39.8644 131.197 39.7732 131.187 39.6949 131.145C39.6165 131.104 39.557 131.034 39.5282 130.95C39.5024 130.865 39.5114 130.772 39.5533 130.693C39.5952 130.614 39.6665 130.555 39.7518 130.528Z" fill="white"/>
<path d="M58.0246 100.869C45.7323 88.7682 40.5406 76.144 43.4055 65.3222C47.082 51.4347 63.4151 41.8327 88.2167 38.9782L88.3083 39.7748C63.852 42.5894 47.7681 51.9759 44.1806 65.5273C41.3924 76.059 46.5088 88.4075 58.5871 100.298L58.0246 100.869Z" fill="#F0F0F0"/>
<path d="M176.624 143.823C161.283 143.823 144.612 141.544 128.052 137.16C107.574 131.738 88.7984 123.556 73.7542 113.496L74.1997 112.829C89.1715 122.841 107.864 130.986 128.257 136.385C146.686 141.264 165.253 143.524 181.945 142.928L181.974 143.729C180.211 143.792 178.428 143.824 176.624 143.823Z" fill="#F0F0F0"/>
<path d="M211.82 138.782L211.563 138.022C225.284 133.383 233.866 125.91 236.381 116.41C239.578 104.334 232.632 90.3197 216.823 76.9496C200.934 63.5115 178.021 52.3613 152.304 45.5533L152.509 44.7782C178.338 51.6162 201.363 62.8241 217.341 76.3376C233.399 89.9187 240.437 104.223 237.156 116.616C234.569 126.388 225.808 134.053 211.82 138.782Z" fill="#F0F0F0"/>
<path d="M85.8298 144.159C55.6847 130.789 32.4555 113.443 20.4218 95.3167L21.0896 94.8731C33.0401 112.874 56.1474 130.117 86.1547 143.426L85.8298 144.159Z" fill="#F0F0F0"/>
<path d="M191.818 167.321C188.709 167.321 185.546 167.251 182.331 167.112L182.365 166.311C206.362 167.35 227.534 164.479 243.598 158.005L243.898 158.749C229.885 164.395 212.024 167.321 191.818 167.321Z" fill="#F0F0F0"/>
<path d="M174.327 39.6971C169.345 38.0749 164.22 36.5645 159.095 35.2077C129.603 27.4001 100.612 24.6281 75.2551 27.1927L75.1744 26.3949C100.626 23.8219 129.716 26.6006 159.3 34.4326C164.44 35.7933 169.579 37.3081 174.575 38.935L174.327 39.6971Z" fill="#F0F0F0"/>
<path d="M39.1846 102.072C26.8923 89.9707 21.7007 77.3465 24.5655 66.5247C28.2421 52.6373 44.5752 43.0353 69.3768 40.1808L69.4684 40.9774C45.012 43.7919 28.9281 53.1785 25.3406 66.7299C22.5525 77.2616 27.6688 89.61 39.7471 101.5L39.1846 102.072Z" fill="#F0F0F0"/>
<path d="M157.784 145.026C142.443 145.026 125.772 142.746 109.212 138.362C88.7345 132.941 69.9585 124.758 54.9143 114.698L55.3598 114.032C70.3316 124.043 89.0243 132.189 109.417 137.587C127.846 142.466 146.413 144.727 163.105 144.13L163.134 144.931C161.371 144.995 159.588 145.026 157.784 145.026Z" fill="#F0F0F0"/>
<path d="M192.98 139.984L192.723 139.225C206.444 134.586 215.026 127.113 217.541 117.613C220.738 105.536 213.792 91.5223 197.983 78.1522C182.094 64.7141 159.181 53.5638 133.464 46.7559L133.669 45.9808C159.498 52.8187 182.523 64.0267 198.501 77.5401C214.559 91.1212 221.597 105.426 218.316 117.818C215.729 127.59 206.968 135.255 192.98 139.984Z" fill="#F0F0F0"/>
<path d="M66.9899 145.361C36.8447 131.991 13.6155 114.646 1.58182 96.5192L2.24964 96.0757C14.2002 114.077 37.3074 131.32 67.3148 144.628L66.9899 145.361Z" fill="#F0F0F0"/>
<path d="M172.978 168.523C169.869 168.523 166.706 168.454 163.491 168.315L163.525 167.514C187.522 168.553 208.694 165.681 224.758 159.208L225.058 159.951C211.045 165.598 193.184 168.523 172.978 168.523Z" fill="#F0F0F0"/>
<path d="M155.487 40.8997C150.505 39.2775 145.38 37.7671 140.255 36.4103C110.763 28.6027 81.772 25.8306 56.4151 28.3952L56.3345 27.5974C81.7859 25.0244 110.876 27.8031 140.46 35.6352C145.6 36.9959 150.739 38.5106 155.736 40.1375L155.487 40.8997Z" fill="#F0F0F0"/>
<path d="M75.8436 100.428C74.1963 100.43 72.617 101.085 71.4522 102.25C70.2874 103.414 69.6322 104.994 69.6304 106.641C67.2681 124.034 66.4792 141.604 67.2732 159.139C67.3204 160.259 67.3727 161.283 67.4333 162.271C67.5214 163.902 67.6334 165.625 67.7659 167.391C67.842 168.433 67.9223 169.478 68.0102 170.52C68.1573 172.216 68.319 173.94 68.4911 175.644C68.5991 176.684 68.7112 177.73 68.8312 178.771C69.0616 180.816 69.3223 182.913 69.6286 185.181C69.6256 186.832 70.2785 188.417 71.444 189.588C72.6095 190.758 74.192 191.417 75.8436 191.421H180.065C181.712 191.419 183.291 190.764 184.456 189.599C185.621 188.434 186.276 186.855 186.278 185.208L186.283 185.165C186.747 183.05 187.179 180.894 187.568 178.758C187.776 177.632 187.955 176.609 188.116 175.631C188.409 173.851 188.669 172.128 188.889 170.51C189.04 169.423 189.176 168.372 189.294 167.382C189.488 165.763 189.663 164.089 189.83 162.264C189.921 161.273 190.005 160.249 190.086 159.134V159.134C191.361 141.558 190.079 123.891 186.282 106.684L186.278 106.641C186.276 104.994 185.621 103.414 184.456 102.25C183.291 101.085 181.712 100.43 180.065 100.428L75.8436 100.428Z" fill="#3F3D56"/>
<path d="M132 127.027C109.418 127.027 85.4892 124.975 54.1716 120.87H54.1683C52.5447 120.867 50.9791 120.266 49.7716 119.181C48.5641 118.095 47.7997 116.603 47.6249 114.988C47.5964 114.746 47.5826 114.502 47.5836 114.257V95.4173C47.5829 95.377 47.5847 95.3367 47.5891 95.2967C47.6243 93.5657 48.3355 91.9171 49.5705 90.7036C50.8055 89.4902 52.4663 88.8081 54.1976 88.8033C108.684 81.395 141.782 81.3957 201.735 88.8048H201.738C203.468 88.8162 205.126 89.5039 206.356 90.721C207.586 91.9381 208.291 93.5881 208.321 95.3182C208.324 95.3511 208.325 95.3842 208.325 95.4173V114.257C208.326 114.502 208.312 114.747 208.283 114.99C208.106 116.609 207.336 118.104 206.123 119.19C204.91 120.275 203.338 120.874 201.71 120.871C175.808 124.974 154.577 127.027 132 127.027Z" fill="#6C63FF"/>
<path d="M135.623 140.112H121.921C120.177 140.11 118.505 139.416 117.272 138.183C116.039 136.95 115.346 135.278 115.344 133.534V83.7562C115.346 82.0123 116.039 80.3405 117.272 79.1073C118.505 77.8742 120.177 77.1806 121.921 77.1786H135.623C137.367 77.1806 139.039 77.8742 140.272 79.1073C141.505 80.3404 142.198 82.0123 142.2 83.7562V133.534C142.198 135.278 141.505 136.95 140.272 138.183C139.039 139.416 137.367 140.11 135.623 140.112Z" fill="#3F3D56"/>
<path d="M166.73 67.6535C166.631 66.7203 166.456 65.7966 166.208 64.8917C165.939 63.9849 165.6 63.1008 165.192 62.2477C163.73 59.1112 161.265 56.5513 158.186 54.9728C154.364 53.0914 149.992 52.9375 145.883 53.8439C142.429 54.6176 139.185 56.1362 136.379 58.2936C134.924 59.3899 133.594 60.6437 132.415 62.0321C131.197 63.493 128.932 67.5066 128.769 67.8782C127.489 64.971 125.651 62.3426 123.361 60.1414C120.698 57.6143 117.52 55.6935 114.045 54.5113C112.197 53.8888 110.279 53.4989 108.335 53.3507C106.278 53.1796 104.206 53.3603 102.21 53.885C98.6236 54.8894 95.5217 57.1569 93.4764 60.2692C91.5274 63.1617 90.5702 66.6089 90.7487 70.0922C90.8474 71.8509 91.2266 73.5825 91.8721 75.2214C92.2181 76.1086 92.6284 76.9693 93.0998 77.7967C93.5876 78.614 94.133 79.3954 94.7318 80.1351C97.0818 83.0189 100.247 85.1267 103.814 86.1829C107.622 87.3598 111.661 87.3983 115.577 86.8457C119.598 86.2783 123.469 84.9766 127.256 83.551C127.762 83.3608 128.265 83.1651 128.769 82.9713C132.136 84.2666 135.531 85.5158 139.056 86.3087C143.021 87.2663 147.136 87.4313 151.165 86.7943C154.92 86.1779 158.412 84.4723 161.207 81.8893C163.792 79.4558 165.602 76.3132 166.409 72.8554C166.807 71.1517 166.915 69.3932 166.73 67.6535ZM114.531 82.9732C112.358 83.2517 110.159 83.2646 107.983 83.0115C106.423 82.7854 104.894 82.3787 103.428 81.7994C99.9731 80.3605 97.2187 77.6257 95.755 74.1809C95.3176 73.0949 95.006 71.9623 94.8264 70.8054C94.7113 69.776 94.711 68.7371 94.8255 67.7077C94.996 66.6248 95.2881 65.5645 95.6963 64.547C96.1378 63.5573 96.686 62.6188 97.3311 61.7481C97.9568 60.9691 98.6638 60.259 99.4401 59.6299C100.176 59.0856 100.968 58.6216 101.802 58.2457C102.798 57.8567 103.835 57.5795 104.892 57.4193C106.324 57.2607 107.77 57.272 109.199 57.4529C110.9 57.7155 112.565 58.1744 114.16 58.8204C115.857 59.5569 117.461 60.4918 118.938 61.6057C120.304 62.6883 121.543 63.9231 122.629 65.2863C123.705 66.7174 124.608 68.2711 125.317 69.915C126.007 71.63 126.492 73.4206 126.761 75.2494L126.764 75.2761C126.659 76.195 126.606 77.1191 126.606 78.0439C126.607 78.4002 126.623 78.756 126.641 79.1117C126.471 79.2747 126.33 79.4647 126.223 79.6738C123.431 80.7692 120.569 81.6769 117.655 82.3908C116.623 82.6292 115.582 82.8233 114.531 82.9732ZM162.72 70.8053C162.54 71.9624 162.229 73.0951 161.791 74.1812C160.335 77.6307 157.578 80.3677 154.118 81.7994C152.652 82.3787 151.124 82.7854 149.564 83.0115C147.383 83.265 145.18 83.2517 143.003 82.9718C139.136 82.4188 135.405 81.1981 131.756 79.8358C131.606 79.7797 131.456 79.7205 131.306 79.664C131.205 79.458 131.07 79.2702 130.907 79.108C130.971 77.8174 130.931 76.5236 130.787 75.2394C131.057 73.414 131.541 71.6269 132.229 69.915C132.939 68.2712 133.841 66.7175 134.917 65.2865C136.004 63.9232 137.242 62.6883 138.609 61.6057C140.085 60.4918 141.689 59.5569 143.386 58.8204C144.981 58.1745 146.646 57.7156 148.347 57.4529C149.776 57.272 151.222 57.2608 152.654 57.4193C153.712 57.5795 154.748 57.8567 155.744 58.2457C156.578 58.6216 157.37 59.0857 158.106 59.6301C158.883 60.2591 159.59 60.9692 160.215 61.7483C160.86 62.6189 161.408 63.5574 161.85 64.547C162.258 65.5645 162.55 66.6248 162.721 67.7077C162.835 68.7371 162.835 69.776 162.72 70.8053Z" fill="#3F3D56"/>
<path d="M87.0673 142.317C88.3956 142.317 89.4724 141.24 89.4724 139.912C89.4724 138.583 88.3956 137.506 87.0673 137.506C85.739 137.506 84.6622 138.583 84.6622 139.912C84.6622 141.24 85.739 142.317 87.0673 142.317Z" fill="#6C63FF"/>
<path d="M104.304 136.304C105.632 136.304 106.709 135.227 106.709 133.899C106.709 132.571 105.632 131.494 104.304 131.494C102.976 131.494 101.899 132.571 101.899 133.899C101.899 135.227 102.976 136.304 104.304 136.304Z" fill="#6C63FF"/>
<path d="M96.6878 155.144C98.0161 155.144 99.0929 154.067 99.0929 152.739C99.0929 151.411 98.0161 150.334 96.6878 150.334C95.3595 150.334 94.2827 151.411 94.2827 152.739C94.2827 154.067 95.3595 155.144 96.6878 155.144Z" fill="#6C63FF"/>
<path d="M168.039 142.317C169.367 142.317 170.444 141.24 170.444 139.912C170.444 138.583 169.367 137.506 168.039 137.506C166.711 137.506 165.634 138.583 165.634 139.912C165.634 141.24 166.711 142.317 168.039 142.317Z" fill="#6C63FF"/>
<path d="M150.803 136.304C152.131 136.304 153.208 135.227 153.208 133.899C153.208 132.571 152.131 131.494 150.803 131.494C149.474 131.494 148.397 132.571 148.397 133.899C148.397 135.227 149.474 136.304 150.803 136.304Z" fill="#6C63FF"/>
<path d="M158.419 155.144C159.747 155.144 160.824 154.067 160.824 152.739C160.824 151.411 159.747 150.334 158.419 150.334C157.09 150.334 156.014 151.411 156.014 152.739C156.014 154.067 157.09 155.144 158.419 155.144Z" fill="#6C63FF"/>
<path d="M170.043 184.406C171.372 184.406 172.448 183.329 172.448 182.001C172.448 180.673 171.372 179.596 170.043 179.596C168.715 179.596 167.638 180.673 167.638 182.001C167.638 183.329 168.715 184.406 170.043 184.406Z" fill="#6C63FF"/>
<path d="M176.056 167.169C177.384 167.169 178.461 166.093 178.461 164.764C178.461 163.436 177.384 162.359 176.056 162.359C174.728 162.359 173.651 163.436 173.651 164.764C173.651 166.093 174.728 167.169 176.056 167.169Z" fill="#6C63FF"/>
<path d="M157.216 174.786C158.544 174.786 159.621 173.709 159.621 172.38C159.621 171.052 158.544 169.975 157.216 169.975C155.888 169.975 154.811 171.052 154.811 172.38C154.811 173.709 155.888 174.786 157.216 174.786Z" fill="#6C63FF"/>
<path d="M101.097 184.406C102.425 184.406 103.502 183.329 103.502 182.001C103.502 180.673 102.425 179.596 101.097 179.596C99.7688 179.596 98.692 180.673 98.692 182.001C98.692 183.329 99.7688 184.406 101.097 184.406Z" fill="#6C63FF"/>
<path d="M107.11 167.169C108.438 167.169 109.515 166.093 109.515 164.764C109.515 163.436 108.438 162.359 107.11 162.359C105.782 162.359 104.705 163.436 104.705 164.764C104.705 166.093 105.782 167.169 107.11 167.169Z" fill="#6C63FF"/>
<path d="M88.2699 174.786C89.5982 174.786 90.675 173.709 90.675 172.38C90.675 171.052 89.5982 169.975 88.2699 169.975C86.9416 169.975 85.8648 171.052 85.8648 172.38C85.8648 173.709 86.9416 174.786 88.2699 174.786Z" fill="#6C63FF"/>
<path d="M157.374 14.5416C158.285 14.9218 159.278 15.061 160.258 14.9458C161.238 14.8307 162.172 14.4651 162.97 13.8842C165.004 12.3672 165.767 9.71913 166.405 7.26388L168.292 0.00012207L165.105 1.93473C162.814 3.32573 160.47 4.76281 158.815 6.87457C157.161 8.98633 156.324 11.9456 157.415 14.3962" fill="#F2F2F2"/>
<path d="M72.1504 76.5885C72.7655 75.8168 73.1714 74.8996 73.3291 73.9254C73.4868 72.9512 73.391 71.9528 73.0508 71.0263C72.1489 68.6546 69.811 67.196 67.6245 65.9093L61.1552 62.1054L62.1431 65.6999C62.8533 68.2848 63.5934 70.933 65.1713 73.1022C66.7493 75.2715 69.3663 76.8868 72.0217 76.5096" fill="#F2F2F2"/>
<path d="M224.073 188.426C224.688 187.654 225.094 186.737 225.251 185.763C225.409 184.788 225.313 183.79 224.973 182.864C224.071 180.492 221.733 179.033 219.547 177.747L213.077 173.943L214.065 177.537C214.775 180.122 215.516 182.77 217.094 184.939C218.671 187.109 221.288 188.724 223.944 188.347" fill="#F2F2F2"/>
<path d="M101.899 46.5135C103.67 46.5135 105.106 45.0777 105.106 43.3067C105.106 41.5356 103.67 40.0999 101.899 40.0999C100.128 40.0999 98.692 41.5356 98.692 43.3067C98.692 45.0777 100.128 46.5135 101.899 46.5135Z" fill="#FD6584"/>
<path d="M16.5177 141.114C18.2888 141.114 19.7245 139.678 19.7245 137.907C19.7245 136.136 18.2888 134.701 16.5177 134.701C14.7466 134.701 13.3109 136.136 13.3109 137.907C13.3109 139.678 14.7466 141.114 16.5177 141.114Z" fill="#FD6584"/>
<path d="M236.985 115.059C238.756 115.059 240.192 113.623 240.192 111.852C240.192 110.081 238.756 108.645 236.985 108.645C235.214 108.645 233.779 110.081 233.779 111.852C233.779 113.623 235.214 115.059 236.985 115.059Z" fill="#FD6584"/>
<path d="M13.3109 60.5433C15.082 60.5433 16.5177 59.1076 16.5177 57.3365C16.5177 55.5654 15.082 54.1297 13.3109 54.1297C11.5399 54.1297 10.1041 55.5654 10.1041 57.3365C10.1041 59.1076 11.5399 60.5433 13.3109 60.5433Z" fill="#E6E6E6"/>
<path d="M211.732 151.937C213.503 151.937 214.939 150.501 214.939 148.73C214.939 146.959 213.503 145.524 211.732 145.524C209.961 145.524 208.525 146.959 208.525 148.73C208.525 150.501 209.961 151.937 211.732 151.937Z" fill="#E6E6E6"/>
<path d="M218.145 54.5306C219.916 54.5306 221.352 53.0948 221.352 51.3237C221.352 49.5527 219.916 48.1169 218.145 48.1169C216.374 48.1169 214.939 49.5527 214.939 51.3237C214.939 53.0948 216.374 54.5306 218.145 54.5306Z" fill="#E6E6E6"/>
<path d="M77.538 105.533C77.2608 105.972 76.5886 105.908 76.2112 105.634C75.6873 105.253 75.8569 104.52 76.2177 104.087C77.3644 102.711 79.2609 104.164 79.5167 105.531C79.6118 106.198 79.5091 106.877 79.2215 107.486C78.9338 108.095 78.4738 108.606 77.8984 108.956C76.5901 109.731 74.8907 109.342 73.7659 108.414C71.4195 106.479 72.0583 102.603 74.6646 101.203C76.328 100.309 78.4308 100.701 80.0693 101.45C81.9138 102.293 83.4999 103.584 85.2056 104.661C88.9482 107.004 93.1818 108.449 97.5756 108.885C98.3448 108.963 98.3393 107.76 97.5756 107.682C95.1408 107.431 92.7504 106.855 90.4678 105.971C88.2094 105.055 86.0659 103.879 84.081 102.465C82.0726 101.089 79.9744 99.7514 77.489 99.5239C76.486 99.4067 75.4699 99.5573 74.5439 99.9602C73.618 100.363 72.8152 101.004 72.2173 101.818C71.6854 102.546 71.3294 103.387 71.1771 104.276C71.0249 105.165 71.0805 106.077 71.3396 106.941C71.6519 107.844 72.198 108.648 72.9222 109.271C73.6464 109.895 74.5228 110.315 75.4624 110.49C76.3668 110.661 77.3021 110.545 78.1376 110.159C78.9732 109.773 79.6675 109.136 80.1236 108.337C81.0384 106.754 81.0087 104.629 79.6269 103.317C79.2309 102.915 78.735 102.624 78.1901 102.476C77.6451 102.328 77.0706 102.327 76.5251 102.474C76.0226 102.643 75.5805 102.956 75.2528 103.373C74.9251 103.79 74.726 104.294 74.68 104.822C74.5466 106.876 77.462 107.903 78.5763 106.14C78.991 105.484 77.9508 104.88 77.5379 105.533L77.538 105.533Z" fill="#3F3D56"/>
<path d="M180.374 105.533C180.652 105.972 181.324 105.908 181.701 105.634C182.225 105.253 182.055 104.52 181.695 104.087C180.548 102.711 178.651 104.164 178.396 105.531C178.301 106.198 178.403 106.877 178.691 107.486C178.979 108.095 179.439 108.606 180.014 108.956C181.322 109.731 183.022 109.342 184.146 108.414C186.493 106.479 185.854 102.603 183.248 101.203C181.584 100.309 179.482 100.701 177.843 101.45C175.999 102.293 174.413 103.584 172.707 104.661C168.964 107.004 164.731 108.449 160.337 108.885C159.568 108.963 159.573 107.76 160.337 107.682C162.772 107.431 165.162 106.855 167.445 105.971C169.703 105.055 171.846 103.879 173.831 102.465C175.84 101.089 177.938 99.7514 180.423 99.5239C181.426 99.4067 182.443 99.5573 183.368 99.9602C184.294 100.363 185.097 101.004 185.695 101.818C186.227 102.546 186.583 103.387 186.735 104.276C186.888 105.165 186.832 106.077 186.573 106.941C186.26 107.844 185.714 108.648 184.99 109.271C184.266 109.895 183.39 110.315 182.45 110.49C181.546 110.661 180.61 110.545 179.775 110.159C178.939 109.773 178.245 109.136 177.789 108.337C176.874 106.754 176.904 104.629 178.285 103.317C178.682 102.915 179.177 102.624 179.722 102.476C180.267 102.328 180.842 102.327 181.387 102.474C181.89 102.643 182.332 102.956 182.66 103.373C182.987 103.79 183.186 104.294 183.232 104.822C183.366 106.876 180.45 107.903 179.336 106.14C178.921 105.484 179.962 104.88 180.374 105.533L180.374 105.533Z" fill="#3F3D56"/>
<path d="M35.6896 14.5762L34.1011 16.569L28.4835 13.246L30.0717 11.2531L35.6896 14.5762Z" fill="#E4E4E4"/>
<path d="M41.5511 23.1384L42.9539 25.232L37.0524 28.1674L35.6496 26.0741L41.5511 23.1384Z" fill="#E4E4E4"/>
<path d="M47.6601 14.0365L50.4635 14.1359L50.1844 20.0018L47.3806 19.9028L47.6601 14.0365Z" fill="#E4E4E4"/>
<path d="M234.11 137.236L232.522 139.229L226.904 135.906L228.493 133.913L234.11 137.236Z" fill="#E4E4E4"/>
<path d="M239.972 145.799L241.375 147.892L235.473 150.828L234.07 148.734L239.972 145.799Z" fill="#E4E4E4"/>
<path d="M246.081 136.697L248.884 136.796L248.605 142.662L245.801 142.563L246.081 136.697Z" fill="#E4E4E4"/>
</g>
<defs>
<clipPath id="clip0_498_10881">
<rect width="248.884" height="191.448" fill="white"/>
</clipPath>
</defs>
</svg>
