<svg width="12" height="16" viewBox="0 0 12 16" fill="none" xmlns="http://www.w3.org/2000/svg">
<path d="M3.99987 15.4997C3.92591 15.4997 3.85287 15.4832 3.78603 15.4515C3.71918 15.4199 3.66019 15.3738 3.61331 15.3166C3.56643 15.2594 3.53283 15.1925 3.51492 15.1207C3.49701 15.0489 3.49524 14.9741 3.50975 14.9016L4.42637 10.3185L0.824499 8.96781C0.747518 8.93896 0.678841 8.89157 0.624548 8.82983C0.570254 8.7681 0.532021 8.69393 0.513232 8.6139C0.494444 8.53386 0.495681 8.45043 0.516833 8.37098C0.537985 8.29154 0.5784 8.21854 0.634499 8.15844L7.6345 0.65844C7.70872 0.578879 7.80687 0.5257 7.91405 0.506973C8.02124 0.488247 8.1316 0.504995 8.2284 0.554675C8.32521 0.604356 8.40316 0.684258 8.45044 0.782257C8.49772 0.880255 8.51174 0.991001 8.49037 1.09769L7.57375 5.68081L11.1756 7.03144C11.2526 7.0603 11.3213 7.10769 11.3756 7.16942C11.4299 7.23115 11.4681 7.30532 11.4869 7.38536C11.5057 7.46539 11.5044 7.54883 11.4833 7.62827C11.4621 7.70772 11.4217 7.78072 11.3656 7.84081L4.36562 15.3408C4.31882 15.391 4.2622 15.431 4.19928 15.4583C4.13635 15.4856 4.06848 15.4997 3.99987 15.4997ZM1.87587 8.29406L5.17562 9.53144C5.28676 9.57311 5.37945 9.65295 5.43711 9.75669C5.49478 9.86043 5.51366 9.98131 5.49037 10.0977L4.83556 13.3717L10.1242 7.70519L6.8245 6.46781C6.71336 6.42615 6.62068 6.3463 6.56301 6.24256C6.50535 6.13882 6.48647 6.01795 6.50975 5.90156L7.16456 2.62763L1.87587 8.29406Z" fill="#1890FF"/>
</svg>
