<svg width="14" height="14" viewBox="0 0 14 14" fill="none" xmlns="http://www.w3.org/2000/svg">
<path d="M10.9798 2.94711C9.92084 1.89852 8.49033 1.31098 7.00002 1.3125C6.98058 1.3125 6.96115 1.31259 6.94172 1.31278C5.60492 1.32668 4.31573 1.81097 3.30041 2.68065C2.28509 3.55033 1.60851 4.74982 1.38942 6.06861C1.17033 7.38741 1.42273 8.74123 2.10232 9.89249C2.7819 11.0437 3.84526 11.9189 5.10575 12.3642C5.3697 12.4573 5.65211 12.4857 5.9293 12.447C6.20648 12.4084 6.47035 12.3038 6.69877 12.1421C6.92719 11.9804 7.11349 11.7662 7.24205 11.5176C7.37061 11.2691 7.43768 10.9933 7.43763 10.7134V10.5C7.43789 10.268 7.53016 10.0456 7.6942 9.88157C7.85823 9.71753 8.08064 9.62526 8.31263 9.625H10.8397C11.2367 9.62691 11.6223 9.49306 11.9327 9.24565C12.2431 8.99825 12.4596 8.65217 12.5463 8.26481C12.6439 7.83388 12.6913 7.39307 12.6874 6.95122C12.682 6.20399 12.5283 5.46528 12.2352 4.77792C11.9421 4.09057 11.5154 3.46827 10.9798 2.94711ZM11.693 8.07084C11.6496 8.26439 11.5413 8.43728 11.386 8.56081C11.2308 8.68435 11.038 8.7511 10.8397 8.75H8.31263C7.84866 8.75052 7.40384 8.93506 7.07576 9.26314C6.74769 9.59122 6.56315 10.036 6.56263 10.5V10.7134C6.56267 10.8533 6.52916 10.9912 6.46493 11.1155C6.40069 11.2397 6.30759 11.3468 6.19343 11.4277C6.07928 11.5086 5.9474 11.5609 5.80884 11.5803C5.67029 11.5997 5.5291 11.5856 5.39713 11.5392C4.33055 11.1623 3.43078 10.4218 2.85573 9.44768C2.28068 8.47354 2.0671 7.32799 2.25247 6.21208C2.43784 5.09617 3.01031 4.08119 3.86942 3.34529C4.72853 2.60939 5.81938 2.19957 6.95052 2.18778C6.96693 2.18756 6.98334 2.1875 6.99974 2.1875C8.26756 2.1921 9.48274 2.69494 10.3831 3.58752C11.2835 4.4801 11.7969 5.69088 11.8125 6.9586C11.8158 7.33272 11.7757 7.70595 11.693 8.07084ZM7.65638 4.15625C7.65638 4.28605 7.61789 4.41293 7.54578 4.52084C7.47367 4.62876 7.37118 4.71288 7.25126 4.76255C7.13135 4.81222 6.9994 4.82521 6.8721 4.79989C6.7448 4.77457 6.62787 4.71207 6.53609 4.62029C6.44431 4.52851 6.38181 4.41158 6.35649 4.28428C6.33116 4.15698 6.34416 4.02503 6.39383 3.90512C6.4435 3.7852 6.52761 3.68271 6.63553 3.6106C6.74345 3.53849 6.87033 3.5 7.00013 3.5C7.17417 3.5 7.34109 3.56914 7.46416 3.69221C7.58724 3.81528 7.65638 3.9822 7.65638 4.15625ZM5.1057 5.90625C5.04079 6.01865 4.94402 6.10928 4.82761 6.16668C4.7112 6.22408 4.58038 6.24567 4.4517 6.22872C4.32302 6.21178 4.20225 6.15705 4.10467 6.07147C4.00709 5.98589 3.93708 5.87329 3.90349 5.74792C3.86991 5.62255 3.87425 5.49004 3.91597 5.36713C3.95769 5.24423 4.03492 5.13646 4.13789 5.05745C4.24087 4.97844 4.36495 4.93173 4.49447 4.92325C4.62398 4.91476 4.75311 4.94486 4.86551 5.00976C4.94015 5.05285 5.00557 5.11022 5.05803 5.1786C5.1105 5.24697 5.14898 5.32501 5.17128 5.40826C5.19359 5.49151 5.19927 5.57833 5.18802 5.66378C5.17677 5.74922 5.14879 5.83162 5.1057 5.90625ZM5.1057 8.09375C5.17059 8.20616 5.20069 8.33528 5.1922 8.4648C5.1837 8.59432 5.137 8.71841 5.05798 8.82137C4.97896 8.92434 4.87118 9.00157 4.74827 9.04329C4.62537 9.085 4.49285 9.08933 4.36748 9.05574C4.24211 9.02214 4.12952 8.95212 4.04394 8.85453C3.95837 8.75694 3.90365 8.63617 3.88672 8.50748C3.86978 8.3788 3.89138 8.24798 3.9488 8.13157C4.00621 8.01517 4.09685 7.9184 4.20926 7.85351C4.35999 7.76649 4.53912 7.74292 4.70723 7.78797C4.87535 7.83303 5.01868 7.94302 5.1057 8.09375ZM10.0312 5.25C10.0961 5.36241 10.1262 5.49153 10.1177 5.62105C10.1092 5.75056 10.0625 5.87464 9.9835 5.97761C9.90448 6.08058 9.7967 6.1578 9.6738 6.19951C9.55089 6.24123 9.41838 6.24556 9.29301 6.21197C9.16764 6.17837 9.05505 6.10835 8.96948 6.01077C8.8839 5.91319 8.82918 5.79242 8.81224 5.66374C8.7953 5.53506 8.8169 5.40424 8.8743 5.28783C8.93171 5.17143 9.02234 5.07466 9.13474 5.00976C9.20938 4.96667 9.29178 4.93869 9.37722 4.92745C9.46267 4.9162 9.5495 4.92189 9.63275 4.9442C9.716 4.96651 9.79403 5.005 9.86241 5.05747C9.93078 5.10994 9.98815 5.17536 10.0312 5.25Z" fill="#0A0B0C"/>
</svg>
