<svg width="18" height="18" viewBox="0 0 18 18" fill="none" xmlns="http://www.w3.org/2000/svg">
<path d="M7.87516 16.3868C7.57678 16.3866 7.29067 16.268 7.0797 16.057C6.86873 15.846 6.75015 15.5599 6.75002 15.2615V9.77991L2.1267 4.69441C1.98004 4.53316 1.88339 4.33277 1.8485 4.11761C1.8136 3.90245 1.84196 3.68179 1.93013 3.48244C2.0183 3.2831 2.16248 3.11366 2.34514 2.99473C2.5278 2.87579 2.74108 2.81249 2.95905 2.8125H15.041C15.2589 2.8125 15.4722 2.8758 15.6548 2.99473C15.8375 3.11365 15.9817 3.28306 16.0698 3.48238C16.158 3.6817 16.1864 3.90234 16.1515 4.11748C16.1166 4.33262 16.02 4.53301 15.8734 4.69427L11.25 9.77998V13.7615C11.2502 13.9467 11.2046 14.1292 11.1172 14.2925C11.0298 14.4558 10.9033 14.595 10.749 14.6976L8.49905 16.1975C8.31437 16.3209 8.09727 16.3868 7.87516 16.3868ZM2.95948 3.9375L7.58245 9.0232C7.77092 9.23016 7.87527 9.50006 7.87502 9.77998V15.2615L10.125 13.7615V9.77998C10.1248 9.5 10.2292 9.23004 10.4177 9.02306L15.0407 3.93778L2.95948 3.9375Z" fill="#1890FF"/>
</svg>
