<svg width="14" height="14" viewBox="0 0 14 14" fill="none" xmlns="http://www.w3.org/2000/svg">
<path d="M7 12.25C6.92512 12.25 6.8515 12.2308 6.78617 12.1942C6.55375 12.0641 1.09375 8.96126 1.09375 5.03125C1.09398 4.34272 1.31072 3.67169 1.71332 3.11312C2.11591 2.55456 2.68396 2.13674 3.33709 1.91879C3.99022 1.70083 4.69534 1.69379 5.35269 1.89865C6.01005 2.10351 6.58633 2.5099 7 3.06032C7.41367 2.5099 7.98995 2.10351 8.64731 1.89865C9.30466 1.69379 10.0098 1.70083 10.6629 1.91879C11.316 2.13674 11.8841 2.55456 12.2867 3.11312C12.6893 3.67169 12.906 4.34272 12.9062 5.03125C12.9062 6.70278 11.9375 8.42215 10.0271 10.1416C9.16049 10.9184 8.21798 11.6061 7.21377 12.1942C7.14846 12.2308 7.07486 12.25 7 12.25ZM4.375 2.625C3.73705 2.62573 3.12543 2.87947 2.67432 3.33058C2.22322 3.78168 1.96947 4.3933 1.96875 5.03125C1.96875 8.05246 6.01453 10.7034 6.99984 11.3039C7.98476 10.7027 12.0312 8.04798 12.0312 5.03125C12.0311 4.47511 11.8384 3.93618 11.4858 3.50608C11.1332 3.07598 10.6425 2.78127 10.0972 2.67203C9.5519 2.5628 8.98559 2.64579 8.49455 2.9069C8.00351 3.16801 7.61805 3.59112 7.4037 4.1043C7.37044 4.18394 7.31436 4.25197 7.24253 4.29981C7.17069 4.34766 7.08631 4.37319 7 4.37319C6.91369 4.37319 6.82931 4.34766 6.75747 4.29981C6.68564 4.25197 6.62956 4.18394 6.5963 4.1043C6.41388 3.66567 6.10546 3.29099 5.71007 3.02767C5.31467 2.76435 4.85005 2.62422 4.375 2.625Z" fill="#0A0B0C"/>
</svg>
