<svg width="24" height="24" viewBox="0 0 24 24" fill="none" xmlns="http://www.w3.org/2000/svg">
<path d="M12.0004 21.75C10.3605 21.7508 8.74694 21.3377 7.30914 20.5491L4.50451 21.3503C4.24731 21.4237 3.97514 21.4271 3.7162 21.36C3.45726 21.2929 3.22097 21.1578 3.03182 20.9687C2.84267 20.7795 2.70753 20.5432 2.64042 20.2843C2.57332 20.0254 2.57667 19.7532 2.65014 19.496L3.45142 16.6914C2.42278 14.8177 2.03831 12.6579 2.35716 10.5443C2.67602 8.43069 3.68053 6.48041 5.21616 4.99353C6.75178 3.50664 8.73343 2.56552 10.8562 2.31497C12.979 2.06442 15.1253 2.51833 16.9649 3.60685C18.8045 4.69536 20.2354 6.35818 21.0376 8.33947C21.8398 10.3208 21.9687 12.5107 21.4046 14.5725C20.8404 16.6342 19.6144 18.4534 17.9153 19.7503C16.2161 21.0471 14.1379 21.7497 12.0004 21.75V21.75ZM7.40683 18.9909C7.5418 18.9909 7.67428 19.0274 7.79026 19.0964C9.51812 20.121 11.5606 20.4797 13.5342 20.105C15.5077 19.7303 17.2766 18.6481 18.5088 17.0616C19.7409 15.475 20.3515 13.4932 20.2259 11.4883C20.1003 9.48343 19.2472 7.59334 17.8267 6.17293C16.4062 4.75253 14.5161 3.89951 12.5112 3.77406C10.5063 3.6486 8.52453 4.25933 6.93805 5.49157C5.35156 6.72381 4.26945 8.4928 3.89491 10.4664C3.52037 12.44 3.87915 14.4824 4.90389 16.2102C4.95614 16.2981 4.98989 16.3957 5.00306 16.497C5.01624 16.5984 5.00855 16.7014 4.98048 16.7996L4.09239 19.908L7.20076 19.0199C7.26778 19.0008 7.33713 18.991 7.40683 18.991V18.9909Z" fill="#0A0B0C"/>
</svg>
