<svg width="24" height="24" viewBox="0 0 24 24" fill="none" xmlns="http://www.w3.org/2000/svg">
<path d="M21.7442 19.8737C20.3447 17.4634 18.1036 15.6555 15.4517 14.7979C16.7221 14.042 17.7093 12.8899 18.2615 11.5186C18.8137 10.1473 18.9005 8.63262 18.5085 7.20723C18.1165 5.78183 17.2674 4.52454 16.0917 3.62846C14.9159 2.73238 13.4785 2.24707 12.0001 2.24707C10.5218 2.24707 9.0844 2.73238 7.90863 3.62846C6.73285 4.52454 5.88376 5.78183 5.49177 7.20723C5.09978 8.63262 5.18656 10.1473 5.7388 11.5186C6.29103 12.8899 7.27817 14.042 8.5486 14.7979C5.89675 15.6555 3.6556 17.4633 2.2561 19.8735C2.20677 19.9588 2.17472 20.0529 2.16178 20.1505C2.14883 20.2482 2.15525 20.3474 2.18066 20.4426C2.20606 20.5377 2.24996 20.627 2.30986 20.7052C2.36975 20.7834 2.44445 20.849 2.52971 20.8983C2.61497 20.9477 2.7091 20.9797 2.80675 20.9926C2.90439 21.0056 3.00363 20.9992 3.09879 20.9738C3.19395 20.9484 3.28318 20.9045 3.36138 20.8446C3.43958 20.7847 3.50521 20.71 3.55454 20.6247C4.41075 19.1425 5.64195 17.9118 7.12445 17.0561C8.60695 16.2004 10.2885 15.75 12.0002 15.75C13.712 15.75 15.3935 16.2005 16.876 17.0562C18.3585 17.9119 19.5897 19.1427 20.4458 20.6249C20.4952 20.7102 20.5608 20.7849 20.639 20.8447C20.7172 20.9046 20.8064 20.9485 20.9016 20.9739C20.9967 20.9993 21.096 21.0057 21.1936 20.9928C21.2912 20.9798 21.3854 20.9478 21.4706 20.8985C21.5559 20.8491 21.6306 20.7835 21.6905 20.7053C21.7504 20.6271 21.7942 20.5379 21.8197 20.4427C21.8451 20.3476 21.8515 20.2483 21.8385 20.1507C21.8256 20.0531 21.7935 19.9589 21.7442 19.8737ZM6.7501 9C6.7501 7.96165 7.05801 6.94661 7.63488 6.08326C8.21176 5.2199 9.0317 4.54699 9.99101 4.14963C10.9503 3.75227 12.0059 3.6483 13.0243 3.85088C14.0427 4.05345 14.9782 4.55346 15.7124 5.28769C16.4466 6.02191 16.9466 6.95738 17.1492 7.97578C17.3518 8.99418 17.2478 10.0498 16.8505 11.0091C16.4531 11.9684 15.7802 12.7883 14.9168 13.3652C14.0535 13.9421 13.0385 14.25 12.0001 14.25C10.6082 14.2484 9.27377 13.6948 8.28954 12.7106C7.30532 11.7263 6.75169 10.3919 6.7501 9Z" fill="#0A0B0C"/>
</svg>
