<svg width="24" height="24" viewBox="0 0 24 24" fill="none" xmlns="http://www.w3.org/2000/svg">
<path d="M21.5293 20.4692L17.4773 16.4171C18.9083 14.7129 19.6261 12.5221 19.4812 10.3015C19.3362 8.08099 18.3397 6.00209 16.6993 4.49839C15.059 2.99469 12.9014 2.18227 10.6767 2.23055C8.4519 2.27883 6.33165 3.18408 4.75807 4.75753C3.18448 6.33097 2.27904 8.45114 2.23057 10.6759C2.18209 12.9007 2.99432 15.0583 4.49788 16.6987C6.00143 18.3392 8.08024 19.336 10.3008 19.4811C12.5213 19.6263 14.7122 18.9086 16.4165 17.4778L20.4687 21.5299C20.6093 21.6706 20.8001 21.7496 20.999 21.7496C21.1979 21.7496 21.3887 21.6706 21.5293 21.5299C21.67 21.3893 21.749 21.1985 21.749 20.9996C21.749 20.8007 21.67 20.6099 21.5293 20.4692ZM3.74957 10.8745C3.74957 9.4653 4.16744 8.08776 4.95034 6.91606C5.73325 5.74436 6.84602 4.83113 8.14795 4.29185C9.44987 3.75258 10.8825 3.61148 12.2646 3.8864C13.6467 4.16132 14.9163 4.83991 15.9127 5.83636C16.9092 6.83281 17.5877 8.10236 17.8627 9.48447C18.1376 10.8666 17.9965 12.2992 17.4572 13.6011C16.9179 14.903 16.0047 16.0158 14.833 16.7987C13.6613 17.5816 12.2838 17.9995 10.8746 17.9995C8.98555 17.9974 7.17452 17.246 5.83879 15.9103C4.50305 14.5745 3.7517 12.7635 3.74957 10.8745Z" fill="#0A0B0C"/>
</svg>
