<svg width="14" height="14" viewBox="0 0 14 14" fill="none" xmlns="http://www.w3.org/2000/svg">
<path d="M13.744 5.8633L12.3991 3.28774C12.2922 3.08516 12.1104 2.93233 11.8924 2.8618C11.6745 2.79126 11.4376 2.8086 11.2323 2.91012L9.95913 3.54668H9.06296L7.25844 2.73009C7.06813 2.64407 6.85335 2.62888 6.65283 2.68727L3.99108 3.46329L2.76745 2.8515C2.56207 2.75005 2.32522 2.73274 2.10728 2.80327C1.88934 2.87379 1.70753 3.02658 1.60052 3.22911L0.255595 5.80473C0.201822 5.90773 0.169102 6.02041 0.159342 6.1362C0.149583 6.25198 0.16298 6.36855 0.198753 6.4791C0.234525 6.58965 0.291956 6.69196 0.367695 6.78008C0.443434 6.8682 0.535963 6.94035 0.639884 6.99232L1.95238 7.64857L4.90704 9.95901C5.00351 10.0346 5.11489 10.089 5.23385 10.1186L8.40338 10.911C8.47215 10.9282 8.54277 10.9369 8.61365 10.9368C8.84624 10.9369 9.06938 10.8448 9.23435 10.6809L11.2467 8.6685C11.2489 8.66636 11.2507 8.66401 11.2528 8.66188L11.261 8.65313C11.2639 8.64985 11.267 8.64679 11.2699 8.64345L12.0873 7.68718L13.3598 7.05095C13.4637 6.99897 13.5562 6.92681 13.632 6.83869C13.7077 6.75057 13.7651 6.64825 13.8009 6.53769C13.8367 6.42714 13.8501 6.31057 13.8403 6.19478C13.8305 6.07899 13.7978 5.96631 13.744 5.8633ZM10.8675 7.76747L8.78838 6.25536C8.71272 6.20031 8.6214 6.17098 8.52784 6.17167C8.43429 6.17236 8.34341 6.20303 8.26857 6.25918L7.56857 6.78418C7.34094 6.95353 7.06479 7.04499 6.78107 7.04499C6.49736 7.04499 6.2212 6.95353 5.99357 6.78418L5.69717 6.56182L7.83731 4.42163H8.96628L8.9683 4.42174L8.96978 4.42163H9.7972L11.2877 7.27599L10.8675 7.76747ZM2.37621 3.63407L3.34342 4.11773L1.99849 6.69329L1.03123 6.20969L2.37621 3.63407ZM8.61562 10.0622L5.4461 9.26973L2.74371 7.15661L4.23318 4.30411L6.89778 3.52732L7.31887 3.71786C7.28337 3.7437 7.24985 3.77214 7.21857 3.80295L5.07838 5.94314C4.98974 6.03179 4.92118 6.13845 4.87735 6.25589C4.83352 6.37334 4.81544 6.49883 4.82433 6.62387C4.83321 6.74892 4.86887 6.87059 4.92887 6.98066C4.98887 7.09072 5.07183 7.18661 5.17211 7.26182L5.46857 7.48407C5.84795 7.76634 6.30821 7.91878 6.78107 7.91878C7.25393 7.91878 7.7142 7.76634 8.09357 7.48407L8.53506 7.153L10.2659 8.41179L8.61562 10.0622ZM12.9684 6.26832L12.0012 6.75197L10.6562 4.1763L11.6235 3.69275L12.9689 6.26804L12.9684 6.26832ZM6.5492 11.7465C6.53533 11.8023 6.51059 11.8548 6.47641 11.901C6.44223 11.9472 6.39927 11.9862 6.35 12.0157C6.30072 12.0453 6.2461 12.0648 6.18925 12.0733C6.13241 12.0817 6.07446 12.0788 6.01873 12.0648L4.37045 11.6528C4.23673 11.6192 4.11278 11.5546 4.00858 11.4643L2.77532 10.3922C2.68829 10.316 2.63501 10.2083 2.62717 10.0929C2.61932 9.97741 2.65754 9.86355 2.73345 9.7762C2.80937 9.68886 2.9168 9.63515 3.03223 9.62684C3.14765 9.61852 3.26167 9.65628 3.34932 9.73184L4.58269 10.8039L6.23097 11.216C6.34352 11.2441 6.44028 11.3158 6.49997 11.4153C6.55966 11.5148 6.57739 11.6339 6.54925 11.7465L6.5492 11.7465Z" fill="#0A0B0C"/>
</svg>
