<svg width="18" height="18" viewBox="0 0 18 18" fill="none" xmlns="http://www.w3.org/2000/svg">
<path d="M16.1476 12.2107L13.3352 15.0228C13.3346 15.0235 13.3338 15.024 13.3331 15.0247C13.3206 15.037 13.3076 15.0487 13.2941 15.06C13.2876 15.0653 13.2807 15.0699 13.2741 15.0749C13.266 15.0809 13.2581 15.0872 13.2498 15.0927C13.2419 15.0981 13.2337 15.1026 13.2256 15.1074C13.2179 15.112 13.2105 15.1168 13.2026 15.1211C13.1944 15.1254 13.1859 15.1291 13.1775 15.1331C13.1693 15.137 13.1612 15.1411 13.1527 15.1447C13.1445 15.148 13.1362 15.1507 13.128 15.1537C13.1189 15.1569 13.11 15.1604 13.1007 15.1632C13.0925 15.1657 13.084 15.1675 13.0757 15.1696C13.0663 15.172 13.057 15.1746 13.0473 15.1766C13.0376 15.1785 13.0279 15.1796 13.018 15.181C13.0097 15.1822 13.0015 15.1838 12.993 15.1846C12.9561 15.1883 12.9189 15.1883 12.882 15.1846C12.8736 15.1838 12.8654 15.1823 12.8571 15.1811C12.8473 15.1797 12.8374 15.1785 12.8276 15.1766C12.8181 15.1747 12.8089 15.1721 12.7996 15.1697C12.7911 15.1676 12.7826 15.1657 12.7742 15.1632C12.7651 15.1604 12.7563 15.157 12.7474 15.1538C12.7389 15.1508 12.7305 15.1481 12.7223 15.1447C12.714 15.1413 12.7061 15.1372 12.698 15.1334C12.6894 15.1293 12.6807 15.1255 12.6724 15.121C12.6648 15.1169 12.6575 15.1123 12.6501 15.1079C12.6417 15.1028 12.6333 15.0981 12.6251 15.0926C12.6172 15.0874 12.6098 15.0815 12.6022 15.0758C12.5951 15.0705 12.5878 15.0656 12.5809 15.0599C12.5689 15.0499 12.5573 15.0395 12.5462 15.0286C12.5441 15.0265 12.5419 15.0248 12.5397 15.0228L9.72724 12.2103C9.62174 12.1048 9.56247 11.9617 9.56246 11.8125C9.56245 11.6633 9.62172 11.5202 9.72721 11.4147C9.8327 11.3092 9.97578 11.2499 10.125 11.2499C10.2742 11.2499 10.4173 11.3092 10.5228 11.4147L12.375 13.267V7.875C12.375 7.72582 12.4343 7.58274 12.5398 7.47725C12.6452 7.37176 12.7883 7.3125 12.9375 7.3125C13.0867 7.3125 13.2298 7.37176 13.3352 7.47725C13.4407 7.58274 13.5 7.72582 13.5 7.875V13.2671L15.3522 11.4152C15.4044 11.3624 15.4664 11.3205 15.5348 11.2918C15.6032 11.2631 15.6766 11.2483 15.7507 11.248C15.8249 11.2478 15.8983 11.2623 15.9669 11.2906C16.0354 11.3188 16.0977 11.3604 16.1501 11.4128C16.2026 11.4653 16.2441 11.5276 16.2724 11.5961C16.3006 11.6647 16.3151 11.7382 16.3148 11.8123C16.3146 11.8865 16.2997 11.9599 16.271 12.0282C16.2423 12.0966 16.2004 12.1586 16.1476 12.2107V12.2107ZM8.4375 8.4375H3.375C3.22582 8.4375 3.08274 8.49676 2.97725 8.60225C2.87176 8.70774 2.8125 8.85082 2.8125 9C2.8125 9.14918 2.87176 9.29226 2.97725 9.39775C3.08274 9.50324 3.22582 9.5625 3.375 9.5625H8.43743C8.58661 9.5625 8.72969 9.50324 8.83518 9.39775C8.94067 9.29226 8.99993 9.14918 8.99993 9C8.99993 8.85082 8.94067 8.70774 8.83518 8.60225C8.72969 8.49676 8.58661 8.4375 8.43743 8.4375H8.4375ZM3.375 5.0625H12.9374C13.0866 5.0625 13.2297 5.00324 13.3352 4.89775C13.4407 4.79226 13.4999 4.64918 13.4999 4.5C13.4999 4.35082 13.4407 4.20774 13.3352 4.10225C13.2297 3.99676 13.0866 3.9375 12.9374 3.9375H3.375C3.22582 3.9375 3.08274 3.99676 2.97725 4.10225C2.87176 4.20774 2.8125 4.35082 2.8125 4.5C2.8125 4.64918 2.87176 4.79226 2.97725 4.89775C3.08274 5.00324 3.22582 5.0625 3.375 5.0625ZM7.3125 12.9375H3.375C3.22582 12.9375 3.08274 12.9968 2.97725 13.1023C2.87176 13.2077 2.8125 13.3508 2.8125 13.5C2.8125 13.6492 2.87176 13.7923 2.97725 13.8977C3.08274 14.0032 3.22582 14.0625 3.375 14.0625H7.3125C7.46168 14.0625 7.60476 14.0032 7.71025 13.8977C7.81574 13.7923 7.875 13.6492 7.875 13.5C7.875 13.3508 7.81574 13.2077 7.71025 13.1023C7.60476 12.9968 7.46168 12.9375 7.3125 12.9375Z" fill="#1890FF"/>
</svg>
